<?xml version="1.0" encoding="UTF-8" standalone="no"?>
<!-- Generator: Adobe Illustrator 16.0.3, SVG Export Plug-In . SVG Version: 6.00 Build 0)  -->

<svg
   version="1.1"
   id="Ebene_1"
   x="0px"
   y="0px"
   width="304px"
   height="99px"
   viewBox="0 0 304 99"
   enable-background="new 0 0 304 99"
   xml:space="preserve"
   sodipodi:docname="logo.svg"
   inkscape:export-filename="logo.png"
   inkscape:export-xdpi="249"
   inkscape:export-ydpi="249"
   inkscape:version="1.2.2 (b0a8486541, 2022-12-01)"
   xmlns:inkscape="http://www.inkscape.org/namespaces/inkscape"
   xmlns:sodipodi="http://sodipodi.sourceforge.net/DTD/sodipodi-0.dtd"
   xmlns="http://www.w3.org/2000/svg"
   xmlns:svg="http://www.w3.org/2000/svg"><defs
   id="defs54"><inkscape:perspective
   sodipodi:type="inkscape:persp3d"
   inkscape:vp_x="0 : 49.5 : 1"
   inkscape:vp_y="0 : 1000 : 0"
   inkscape:vp_z="304 : 49.5 : 1"
   inkscape:persp3d-origin="152 : 33 : 1"
   id="perspective447" />
	
	
	
	
	
	

	
	
</defs><sodipodi:namedview
   id="namedview52"
   pagecolor="#ffffff"
   bordercolor="#666666"
   borderopacity="1.0"
   inkscape:showpageshadow="2"
   inkscape:pageopacity="0.0"
   inkscape:pagecheckerboard="0"
   inkscape:deskcolor="#d1d1d1"
   showgrid="false"
   showguides="true"
   inkscape:zoom="1.1980718"
   inkscape:cx="-73.03402"
   inkscape:cy="-44.655086"
   inkscape:window-width="1561"
   inkscape:window-height="1039"
   inkscape:window-x="1442"
   inkscape:window-y="0"
   inkscape:window-maximized="0"
   inkscape:current-layer="Ebene_1"><sodipodi:guide
     position="197.71834,8.8463376"
     orientation="0,-1"
     id="guide584"
     inkscape:locked="false" /></sodipodi:namedview>


<g
   id="g21">
</g>
<g
   id="g23">
</g>
<g
   id="g25">
</g>
<g
   id="g27">
</g>
<g
   id="g29">
</g>
<g
   id="g31">
</g>
<g
   id="g33">
</g>
<g
   id="g35">
</g>
<g
   id="g37">
</g>
<g
   id="g39">
</g>
<g
   id="g41">
</g>
<g
   id="g43">
</g>
<g
   id="g45">
</g>
<g
   id="g47">
</g>
<g
   id="g49">
</g>
<g
   id="g626"><rect
     x="14.5"
     y="21.5"
     fill="#343f4a"
     stroke="#000000"
     stroke-miterlimit="10"
     width="50"
     height="66"
     id="rect2" /><rect
     x="7.5"
     y="15.5"
     fill="#587896"
     stroke="#3c5166"
     stroke-miterlimit="10"
     width="50"
     height="66"
     id="rect4"
     style="fill:#d4aa00" /><path
     fill="#282e33"
     d="m 129.19561,76.804403 h -8.46809 V 43.914475 H 109.8826 v -7.047418 h 30.15793 v 7.047418 h -10.84492 z"
     id="path7"
     style="stroke-width:0.847657" /><path
     fill="#282e33"
     d="m 143.77784,38.369105 c 0,-2.713349 1.51138,-4.070448 4.53497,-4.070448 3.02274,0 4.53496,1.357099 4.53496,4.070448 0,1.293524 -0.37805,2.298845 -1.13332,3.018505 -0.75611,0.719661 -1.88942,1.079067 -3.40079,1.079067 -3.02444,0 -4.53582,-1.365575 -4.53582,-4.097572 z m 8.68679,38.435298 h -8.33162 V 46.263332 h 8.33162 z"
     id="path9"
     style="stroke-width:0.847657" /><path
     fill="#282e33"
     d="m 187.9984,76.804403 h -8.33162 V 58.966315 c 0,-2.20306 -0.39162,-3.85599 -1.17485,-4.957944 -0.78324,-1.101954 -2.03099,-1.65293 -3.74241,-1.65293 -2.33105,0 -4.01534,0.778148 -5.05372,2.335294 -1.03838,1.557145 -1.55715,4.13826 -1.55715,7.744191 v 14.368629 h -8.33162 V 46.263332 h 6.36506 l 1.11975,3.906002 h 0.46452 c 0.92903,-1.474923 2.20814,-2.590439 3.83819,-3.346549 1.62919,-0.755262 3.48302,-1.133317 5.55893,-1.133317 3.55083,0 6.24638,0.960395 8.0858,2.882033 1.83941,1.921638 2.75912,4.694323 2.75912,8.318055 z"
     id="path11"
     style="stroke-width:0.847657" /><path
     fill="#282e33"
     d="m 190.80669,46.263332 h 9.12417 l 5.76407,17.182849 c 0.49164,1.493571 0.82901,3.260088 1.01041,5.29955 h 0.16359 c 0.20005,-1.875017 0.59167,-3.642381 1.17486,-5.29955 l 5.65471,-17.182849 h 8.93261 l -12.92083,34.447073 c -1.18418,3.186342 -2.87271,5.572495 -5.06729,7.156766 -2.19459,1.58427 -4.7579,2.376829 -7.68995,2.376829 -1.43847,0 -2.85066,-0.155121 -4.23404,-0.464516 V 83.16861 c 1.00108,0.236496 2.09371,0.355168 3.27789,0.355168 1.47492,0 2.76336,-0.450954 3.86531,-1.352013 1.10196,-0.901059 1.96233,-2.263243 2.58112,-4.08401 l 0.49164,-1.502047 z"
     id="path13"
     style="stroke-width:0.847657" /><path
     fill="#004b6b"
     d="m 259.39398,56.453013 c 0,6.574425 -1.87163,11.609506 -5.61403,15.10609 -3.7424,3.496584 -9.14706,5.2453 -16.21228,5.2453 H 226.25823 V 36.866209 h 12.53854 c 6.51933,0 11.58238,1.720744 15.18831,5.163077 3.60594,3.442334 5.4089,8.250243 5.4089,14.423727 z m -8.79613,0.218695 c 0,-8.577438 -3.78818,-12.866581 -11.36369,-12.866581 h -4.50699 v 26.006108 h 3.63306 c 8.15785,0 12.23762,-4.379842 12.23762,-13.139527 z"
     id="path15"
     style="stroke-width:0.847657;fill:#806600" /><path
     fill="#004b6b"
     d="M 265.15381,36.866209 H 277.583 c 5.66404,0 9.77518,0.806122 12.3334,2.417517 2.55823,1.611396 3.83819,4.175557 3.83819,7.689942 0,2.386154 -0.5603,4.343393 -1.68005,5.873413 -1.11976,1.530021 -2.60909,2.449728 -4.46631,2.759123 v 0.272945 c 2.53111,0.56454 4.35696,1.621568 5.47671,3.168541 1.11976,1.547821 1.68006,3.605932 1.68006,6.173484 0,3.642381 -1.31556,6.483726 -3.94754,8.523188 -2.63197,2.039462 -6.20569,3.059193 -10.72201,3.059193 H 265.15296 V 36.866209 Z m 8.46809,15.817275 h 4.91726 c 2.2946,0 3.95601,-0.355169 4.98506,-1.065505 1.02821,-0.710336 1.54359,-1.885188 1.54359,-3.523709 0,-1.53002 -0.5603,-2.626888 -1.68006,-3.291451 -1.11975,-0.664563 -2.89136,-0.996844 -5.31311,-0.996844 h -4.45274 z m 0,6.719374 v 10.407529 h 5.51824 c 2.33106,0 4.0518,-0.445867 5.16308,-1.338449 1.11043,-0.891735 1.66649,-2.258158 1.66649,-4.097573 0,-3.314338 -2.3675,-4.971507 -7.10251,-4.971507 z"
     id="path17"
     style="stroke-width:0.847657;fill:#806600" /><path
     fill="#282e33"
     d="m 110.3398,45.689468 h -8.33162 v 17.838088 c 0,2.20306 -0.39162,3.85599 -1.17485,4.957944 -0.78324,1.101954 -2.030986,1.65293 -3.742406,1.65293 -2.33105,0 -4.01534,-0.778148 -5.05372,-2.335294 -1.03838,-1.557145 -1.55715,-4.13826 -1.55715,-7.744191 V 45.690316 h -8.33162 l 0.161672,44.758055 6.72965,-0.483382 0.497457,-15.995381 -0.01808,-0.0092 c 1.591144,1.151084 2.578225,1.588216 4.306388,2.108636 1.738043,0.575236 3.593454,0.735404 5.669364,0.735404 3.550826,0 6.246376,-0.960395 8.085796,-2.882033 1.83941,-1.921638 2.75912,-4.694323 2.75912,-8.318055 z"
     id="path455"
     style="stroke-width:0.847657"
     sodipodi:nodetypes="ccssssscccccccsssc" /></g></svg>
